<svg version="1.1" id="Layer_1" xmlns="http://www.w3.org/2000/svg" xmlns:xlink="http://www.w3.org/1999/xlink" x="0px" y="0px"
	 width="100%" viewBox="0 0 438 212" enable-background="new 0 0 438 212" xml:space="preserve">
<path fill="#FFFFFF" opacity="1.000000" stroke="none" 
	d="
M259.000000,213.000000 
	C172.666702,213.000000 86.833397,213.000000 1.000069,213.000000 
	C1.000046,142.333389 1.000046,71.666779 1.000023,1.000126 
	C146.999893,1.000084 292.999786,1.000084 438.999756,1.000042 
	C438.999817,71.666534 438.999817,142.333069 438.999908,212.999802 
	C379.166656,213.000000 319.333344,213.000000 259.000000,213.000000 
M393.288605,149.856155 
	C397.243530,146.081421 401.670349,142.687424 405.074402,138.468246 
	C423.075073,116.157257 418.509186,83.741112 395.032806,65.410469 
	C374.468781,49.353821 344.637939,54.091496 327.299561,76.167732 
	C312.332794,95.224281 313.814392,123.029366 330.818298,142.203735 
	C346.230469,159.583160 371.915558,162.910873 393.288605,149.856155 
M122.350143,78.238594 
	C112.908401,65.078476 100.454819,56.853127 84.011658,56.127522 
	C46.760174,54.483681 20.932570,93.861732 36.542362,128.221970 
	C50.697224,159.379623 88.393677,167.684052 113.995438,145.189362 
	C131.826706,129.522125 137.088654,101.770226 122.350143,78.238594 
M263.097382,138.575455 
	C275.897675,121.313683 277.841949,102.667564 268.249390,83.674110 
	C258.910339,65.182655 243.249130,55.538628 222.206757,56.111233 
	C192.437302,56.921307 170.017242,86.289886 176.155670,117.123505 
	C180.193878,137.407669 192.612061,151.246094 212.890167,156.359818 
	C232.854385,161.394424 249.549744,154.946762 263.097382,138.575455 
z"/>
<path fill="#0171C0" opacity="1.000000" stroke="none" 
	d="
M392.976532,150.036255 
	C371.915558,162.910873 346.230469,159.583160 330.818298,142.203735 
	C313.814392,123.029366 312.332794,95.224281 327.299561,76.167732 
	C344.637939,54.091496 374.468781,49.353821 395.032806,65.410469 
	C418.509186,83.741112 423.075073,116.157257 405.074402,138.468246 
	C401.670349,142.687424 397.243530,146.081421 392.976532,150.036255 
z"/>
<path fill="#FF6262" opacity="1.000000" stroke="none" 
	d="
M122.567810,78.531105 
	C137.088654,101.770226 131.826706,129.522125 113.995438,145.189362 
	C88.393677,167.684052 50.697224,159.379623 36.542362,128.221970 
	C20.932570,93.861732 46.760174,54.483681 84.011658,56.127522 
	C100.454819,56.853127 112.908401,65.078476 122.567810,78.531105 
z"/>
<path fill="#93D051" opacity="1.000000" stroke="none" 
	d="
M262.876709,138.856094 
	C249.549744,154.946762 232.854385,161.394424 212.890167,156.359818 
	C192.612061,151.246094 180.193878,137.407669 176.155670,117.123505 
	C170.017242,86.289886 192.437302,56.921307 222.206757,56.111233 
	C243.249130,55.538628 258.910339,65.182655 268.249390,83.674110 
	C277.841949,102.667564 275.897675,121.313683 262.876709,138.856094 
z"/>
</svg>